<svg xmlns="http://www.w3.org/2000/svg" xmlns:xlink="http://www.w3.org/1999/xlink" width="800" zoomAndPan="magnify" viewBox="0 0 600 225" height="300" preserveAspectRatio="xMidYMid meet" version="1.0"><path fill="#14234c" d="M 189.832031 101.566406 C 200.777344 101.566406 207.84375 107.246094 211.171875 116.800781 L 227.523438 116.800781 C 223.503906 98.65625 209.09375 87.300781 189.832031 87.300781 C 166.828125 87.300781 149.503906 105.167969 149.503906 128.574219 C 149.503906 151.980469 166.828125 169.292969 189.832031 169.292969 C 209.09375 169.292969 223.089844 157.382812 227.523438 139.792969 L 211.171875 139.792969 C 207.84375 148.796875 200.640625 155.027344 189.832031 155.027344 C 174.726562 155.027344 165.300781 144.222656 165.300781 128.710938 C 165.441406 113.0625 174.726562 101.566406 189.832031 101.566406 Z M 189.832031 101.566406 " fill-opacity="1" fill-rule="nonzero"/><path fill="#14234c" d="M 257.316406 96.164062 L 256.625 96.164062 L 255.792969 88.410156 L 242.074219 88.410156 L 242.074219 169.570312 L 257.316406 169.570312 L 257.316406 118.1875 C 257.316406 107.382812 265.632812 101.429688 276.582031 101.429688 C 278.9375 101.429688 279.492188 101.566406 279.492188 101.566406 L 279.492188 86.746094 C 279.492188 86.746094 278.519531 86.46875 276.582031 86.46875 C 271.867188 86.46875 263.277344 88.410156 257.316406 96.164062 Z M 257.316406 96.164062 " fill-opacity="1" fill-rule="nonzero"/><path fill="#14234c" d="M 420.980469 86.46875 C 407.398438 86.46875 399.082031 92.285156 395.480469 96.164062 L 394.789062 96.164062 L 393.957031 88.410156 L 380.238281 88.410156 L 380.238281 169.570312 L 395.480469 169.570312 L 395.480469 118.464844 C 395.480469 107.105469 405.734375 101.152344 418.34375 101.152344 C 429.15625 101.152344 436.914062 106.550781 436.914062 117.769531 L 436.914062 169.570312 L 452.160156 169.570312 L 452.160156 116.800781 C 452.019531 94.363281 436.222656 86.46875 420.980469 86.46875 Z M 420.980469 86.46875 " fill-opacity="1" fill-rule="nonzero"/><path fill="#14234c" d="M 471.699219 88.410156 L 486.941406 88.410156 L 486.941406 169.570312 L 471.699219 169.570312 Z M 471.699219 88.410156 " fill-opacity="1" fill-rule="nonzero"/><path fill="#14234c" d="M 324.390625 87.300781 C 301.246094 87.300781 283.648438 104.890625 283.648438 128.296875 C 283.648438 151.703125 301.109375 169.292969 324.390625 169.292969 C 347.53125 169.292969 365.132812 151.703125 365.132812 128.296875 C 365.132812 104.890625 347.53125 87.300781 324.390625 87.300781 Z M 324.390625 154.613281 C 309.285156 154.613281 299.585938 143.53125 299.585938 128.296875 C 299.585938 113.0625 309.285156 101.703125 324.390625 101.703125 C 339.496094 101.703125 349.195312 113.0625 349.195312 128.296875 C 349.195312 143.53125 339.496094 154.613281 324.390625 154.613281 Z M 324.390625 154.613281 " fill-opacity="1" fill-rule="nonzero"/><path fill="#14234c" d="M 536.136719 120.265625 C 521.03125 116.941406 521.726562 113.199219 521.726562 109.875 C 521.726562 105.859375 526.160156 100.875 533.503906 100.875 C 539.601562 100.875 546.113281 103.921875 546.113281 114.171875 L 560.804688 114.171875 C 561.359375 97.550781 550.410156 87.441406 533.503906 87.441406 C 518.539062 87.441406 506.480469 97.828125 506.480469 110.570312 C 506.480469 126.636719 519.230469 131.621094 533.089844 134.667969 C 547.777344 137.851562 549.023438 142.425781 549.023438 145.609375 C 549.023438 151.703125 542.789062 156.964844 534.058594 156.964844 C 527.824219 156.964844 518.261719 153.089844 518.261719 141.316406 L 503.570312 141.316406 C 502.601562 159.875 516.042969 170.539062 534.058594 170.539062 C 551.105469 170.539062 564.546875 159.597656 564.546875 145.054688 C 564.40625 128.433594 549.855469 123.171875 536.136719 120.265625 Z M 536.136719 120.265625 " fill-opacity="1" fill-rule="nonzero"/><path fill="#14234c" d="M 84.925781 57.386719 L 34.347656 169.570312 L 50.558594 169.570312 L 60.398438 146.996094 L 123.3125 146.996094 L 133.152344 169.570312 L 149.226562 169.570312 L 98.921875 57.386719 Z M 91.578125 76.496094 L 92.269531 76.496094 L 93.101562 78.574219 L 107.375 111.261719 L 76.472656 111.261719 L 90.746094 78.574219 Z M 66.082031 134.253906 L 70.792969 123.726562 L 112.917969 123.726562 L 117.632812 134.253906 Z M 66.082031 134.253906 " fill-opacity="1" fill-rule="nonzero"/></svg>