<svg xmlns="http://www.w3.org/2000/svg" xmlns:xlink="http://www.w3.org/1999/xlink" width="800" zoomAndPan="magnify" viewBox="0 0 600 599.999999" height="800" preserveAspectRatio="xMidYMid meet" version="1.0"><path fill="#000000" d="M 373.703125 136.628906 C 391.199219 116.355469 402.992188 88.101562 399.765625 60 C 374.550781 60.960938 344.042969 76.101562 325.964844 96.363281 C 309.730469 114.339844 295.554688 143.0625 299.367188 170.613281 C 327.492188 172.699219 356.203125 156.9375 373.703125 136.628906 M 436.777344 315 C 437.480469 387.644531 503.273438 411.808594 504 412.125 C 503.464844 413.824219 493.492188 446.566406 469.34375 480.398438 C 448.449219 509.636719 426.777344 538.746094 392.628906 539.367188 C 359.089844 539.964844 348.292969 520.3125 309.921875 520.3125 C 271.578125 520.3125 259.589844 538.746094 227.847656 539.964844 C 194.890625 541.148438 169.769531 508.335938 148.730469 479.203125 C 105.675781 419.613281 72.792969 310.792969 116.960938 237.363281 C 138.902344 200.90625 178.09375 177.785156 220.664062 177.210938 C 253.011719 176.613281 283.566406 198.070312 303.347656 198.070312 C 323.125 198.070312 360.257812 172.265625 399.28125 176.0625 C 415.613281 176.707031 461.480469 182.378906 490.917969 223.675781 C 488.539062 225.09375 436.191406 254.273438 436.777344 315 " fill-opacity="1" fill-rule="evenodd"/></svg>