<svg xmlns="http://www.w3.org/2000/svg" xmlns:xlink="http://www.w3.org/1999/xlink" width="800" zoomAndPan="magnify" viewBox="0 0 600 599.999999" height="800" preserveAspectRatio="xMidYMid meet" version="1.0"><path fill="#0083ca" d="M 292.558594 60.722656 L 307.4375 60.722656 C 379.816406 64.804688 431.421875 92.289062 469.679688 130.804688 C 507.9375 169.320312 536.21875 220.121094 540 292.804688 L 540 307.203125 C 536.324219 381.050781 507.542969 429.789062 469.679688 469.445312 C 429.902344 507.113281 381.007812 535.652344 307.199219 539.28125 L 292.558594 539.28125 C 220.191406 535.191406 168.578125 507.722656 130.320312 469.203125 C 92.0625 430.6875 63.777344 379.886719 60 307.203125 L 60 292.804688 C 60.1875 292.753906 60.28125 292.605469 60.238281 292.324219 C 63.859375 219.917969 92.292969 168.589844 130.320312 130.566406 C 168.519531 92.363281 220.660156 64.683594 292.558594 60.722656 Z M 245.519531 95.042969 C 231.257812 98.863281 218.472656 103.710938 206.878906 109.445312 C 171.597656 126.890625 142.503906 151.851562 122.160156 183.84375 C 102.304688 215.074219 85.109375 255.246094 87.601562 307.921875 C 89.171875 341.132812 96.75 369.070312 108.71875 392.882812 C 132.359375 439.902344 168.351562 474.546875 218.160156 495.605469 C 242.792969 506.015625 273.3125 513.320312 307.679688 511.683594 C 340.648438 510.113281 369.214844 502.703125 392.878906 490.804688 C 439.265625 467.480469 475.820312 431.496094 496.082031 381.84375 C 506.328125 356.726562 514.078125 327.710938 512.402344 292.5625 C 509.230469 225.980469 482.148438 180.832031 446.402344 146.402344 C 428.71875 129.367188 407.421875 114.878906 382.324219 104.40625 C 357.972656 94.242188 326.273438 86.707031 292.324219 88.324219 C 275.632812 89.117188 259.886719 91.195312 245.519531 95.042969 Z M 245.519531 95.042969 " fill-opacity="1" fill-rule="nonzero"/><path fill="#0083ca" d="M 277.921875 237.84375 C 285.523438 242.878906 293.300781 247.742188 300.480469 253.203125 C 284.265625 263.386719 268.367188 273.890625 252.242188 284.164062 C 254.691406 286.035156 257.472656 287.570312 259.921875 289.445312 C 276.179688 279.144531 292.445312 268.847656 308.640625 258.484375 C 315.90625 262.980469 323.058594 267.589844 329.761719 272.644531 C 313.53125 282.894531 297.847656 293.6875 281.761719 304.082031 C 284.144531 306.023438 287.066406 307.417969 289.679688 309.125 C 306.304688 298.949219 322.515625 288.359375 338.878906 277.925781 L 338.878906 243.84375 L 374.882812 243.84375 L 374.882812 311.765625 C 385.039062 312.324219 396.242188 311.84375 406.800781 312.003906 L 406.800781 343.925781 L 338.878906 343.925781 L 338.878906 311.523438 C 318.925781 323.648438 298.476562 337.355469 278.402344 350.164062 C 257.496094 336.589844 237.347656 322.253906 216.480469 308.644531 C 210.4375 327.804688 196.078125 342.222656 172.320312 343.925781 C 157.503906 344.984375 140.667969 343.132812 123.601562 343.925781 L 123.601562 243.84375 C 144.9375 245.257812 168.363281 240.992188 185.28125 246.242188 C 200.238281 250.890625 210.839844 262.824219 215.761719 277.683594 C 236.644531 264.566406 257.191406 251.117188 277.921875 237.84375 Z M 157.917969 276.003906 L 157.917969 312.003906 C 166.496094 312.046875 173.015625 312.542969 178.078125 308.644531 C 185.609375 302.84375 187.125 288.464844 180.480469 280.804688 C 176.042969 275.691406 168.550781 274.617188 158.160156 275.285156 C 157.882812 275.324219 157.898438 275.664062 157.917969 276.003906 Z M 416.160156 243.84375 L 452.160156 243.84375 L 452.160156 312.003906 L 483.839844 312.003906 L 483.839844 343.925781 L 415.917969 343.925781 L 415.917969 244.5625 C 415.898438 244.222656 415.878906 243.882812 416.160156 243.84375 Z M 416.160156 243.84375 " fill-opacity="1" fill-rule="nonzero"/></svg>