<svg xmlns="http://www.w3.org/2000/svg" xmlns:xlink="http://www.w3.org/1999/xlink" width="800" zoomAndPan="magnify" viewBox="0 0 600 599.999999" height="800" preserveAspectRatio="xMidYMid meet" version="1.0"><defs><clipPath id="0ca2aeafae"><path d="M 24.820312 177 L 339 177 L 339 337 L 24.820312 337 Z M 24.820312 177 " clip-rule="nonzero"/></clipPath></defs><path fill="#0d2c40" d="M 565.964844 412.757812 C 570.71875 412.753906 574.597656 416.558594 574.691406 421.308594 C 574.691406 426.007812 570.898438 429.824219 566.195312 429.859375 C 561.496094 429.890625 557.652344 426.121094 557.589844 421.421875 C 557.523438 416.722656 561.265625 412.851562 565.964844 412.757812 Z M 566.042969 414.472656 C 562.273438 414.460938 559.210938 417.5 559.1875 421.269531 C 559.167969 424.878906 561.949219 427.855469 565.5 428.125 L 565.953125 428.144531 L 566.484375 428.128906 C 567.933594 428.039062 569.316406 427.484375 570.429688 426.550781 L 570.835938 426.179688 C 572.136719 424.894531 572.867188 423.136719 572.859375 421.308594 C 572.859375 417.539062 569.808594 414.484375 566.042969 414.472656 Z M 562.765625 417.0625 L 566.429688 417.0625 C 568.277344 417.0625 569.488281 417.949219 569.644531 419.4375 L 569.660156 419.765625 C 569.757812 420.847656 569.15625 421.859375 568.1875 422.296875 L 567.886719 422.414062 L 569.890625 425.320312 L 567.769531 425.320312 L 565.996094 422.675781 L 564.570312 422.675781 L 564.570312 425.234375 L 562.765625 425.234375 L 562.765625 417.0625 L 566.429688 417.0625 Z M 566.371094 418.660156 L 564.570312 418.660156 L 564.570312 421.074219 L 566.402344 421.074219 L 566.402344 421.015625 C 567.332031 421.015625 567.828125 420.695312 567.828125 419.882812 C 567.828125 419.160156 567.367188 418.757812 566.652344 418.675781 Z M 566.371094 418.660156 " fill-opacity="1" fill-rule="nonzero"/><path fill="#0d2c40" d="M 256.128906 315.515625 L 256.128906 383.496094 C 255.8125 392.882812 260.640625 401.695312 268.71875 406.480469 C 276.800781 411.269531 286.851562 411.269531 294.929688 406.480469 C 302.761719 401.84375 307.535156 393.429688 307.539062 384.371094 L 307.523438 383.496094 L 307.523438 315.515625 L 332.277344 315.515625 L 332.277344 381.953125 C 332.71875 400.265625 323.199219 417.378906 307.40625 426.667969 C 291.617188 435.953125 272.035156 435.953125 256.242188 426.667969 C 240.761719 417.5625 231.308594 400.933594 231.359375 383.027344 L 231.375 381.953125 L 231.375 315.515625 Z M 153.765625 315.558594 L 154.789062 315.574219 L 218.691406 315.574219 L 218.691406 339.253906 L 154.699219 339.253906 C 149.878906 339.253906 145.972656 343.160156 145.972656 347.980469 C 145.972656 353.25 149.164062 356.550781 155.46875 357.746094 L 156.183594 357.867188 L 195.566406 363.6875 C 216.160156 366.886719 225.121094 382.390625 225.121094 397.367188 C 225.023438 406.257812 221.34375 414.734375 214.917969 420.878906 C 208.738281 426.785156 200.519531 430.054688 191.996094 430.023438 L 190.972656 430.003906 L 125.117188 430.003906 L 125.117188 427.882812 C 125.117188 413.953125 134.65625 406.71875 143.929688 406.179688 L 144.519531 406.152344 L 191.058594 406.152344 C 195.878906 406.152344 199.785156 402.246094 199.785156 397.425781 C 199.785156 392.125 196.621094 388.828125 190.292969 387.632812 L 189.574219 387.507812 L 150.191406 381.691406 C 129.625 378.519531 120.640625 363.015625 120.640625 348.066406 C 120.78125 339.203125 124.480469 330.769531 130.902344 324.660156 C 137.074219 318.785156 145.269531 315.535156 153.765625 315.558594 Z M 372.675781 315.554688 L 373.699219 315.574219 L 437.542969 315.574219 L 437.542969 339.253906 L 373.554688 339.253906 C 368.734375 339.253906 364.828125 343.160156 364.828125 347.980469 C 364.828125 353.25 368.019531 356.550781 374.324219 357.746094 L 375.035156 357.867188 L 414.421875 363.6875 C 435.074219 366.886719 444.058594 382.390625 444.058594 397.367188 C 443.957031 406.261719 440.269531 414.738281 433.839844 420.878906 C 427.65625 426.785156 419.433594 430.054688 410.90625 430.023438 L 409.882812 430.003906 L 346.183594 430.003906 L 346.183594 406.152344 L 409.96875 406.152344 C 414.789062 406.152344 418.695312 402.246094 418.695312 397.425781 C 418.695312 392.125 415.503906 388.828125 409.175781 387.632812 L 408.457031 387.507812 L 369.101562 381.691406 C 348.507812 378.519531 339.519531 363.015625 339.519531 348.066406 C 339.664062 339.199219 343.367188 330.761719 349.792969 324.648438 C 355.972656 318.773438 364.175781 315.527344 372.675781 315.554688 Z M 483.703125 315.5 L 484.722656 315.515625 L 553.863281 315.515625 L 553.863281 317.613281 C 553.863281 331.511719 544.300781 338.773438 535.027344 339.3125 L 534.433594 339.339844 L 484.636719 339.339844 C 479.988281 339.339844 476.191406 342.972656 475.925781 347.554688 L 475.910156 348.066406 L 475.910156 369.734375 C 478.597656 365.289062 483.339844 362.515625 488.496094 362.328125 L 489.203125 362.320312 L 541.066406 362.320312 C 537.699219 375.480469 527.101562 386.929688 508.75 387.351562 L 507.703125 387.363281 L 486.121094 387.363281 C 483.402344 387.152344 480.722656 388.117188 478.765625 390.015625 C 476.957031 391.765625 475.925781 394.15625 475.875 396.65625 L 475.882812 397.28125 C 475.882812 401.929688 479.515625 405.726562 484.09375 405.992188 L 484.609375 406.007812 L 534.40625 406.007812 C 543.691406 406.292969 553.421875 413.242188 553.824219 426.859375 L 553.835938 427.734375 L 553.835938 429.859375 L 484.753906 429.859375 C 475.890625 430.164062 467.277344 426.894531 460.847656 420.785156 C 454.667969 414.910156 451.007812 406.882812 450.609375 398.390625 L 450.574219 397.367188 L 450.574219 348.066406 C 450.703125 339.195312 454.394531 330.746094 460.816406 324.625 C 466.992188 318.738281 475.195312 315.476562 483.703125 315.5 Z M 483.703125 315.5 " fill-opacity="1" fill-rule="nonzero"/><g clip-path="url(#0ca2aeafae)"><path fill="#02d35f" d="M 77.007812 207.429688 L 78.460938 206.527344 C 125.964844 177.289062 160.289062 177.101562 185.757812 177.929688 L 189.253906 178.050781 C 219.710938 179.125 252.171875 189.597656 256.621094 191.109375 L 256.796875 181.015625 C 256.78125 180.886719 256.832031 180.761719 256.929688 180.675781 C 256.996094 180.621094 257.082031 180.59375 257.164062 180.589844 L 259.207031 180.882812 C 268.167969 182.238281 304.988281 188.445312 321.488281 198.0625 C 323.039062 199.027344 324.449219 200.195312 325.683594 201.535156 L 326.285156 202.222656 C 331.113281 207.195312 336.875 226.859375 338.5625 232.675781 C 338.96875 234.132812 337.25 235.265625 336.785156 235.585938 L 335.097656 236.753906 C 330.179688 240.082031 321.015625 245.488281 309.707031 244.457031 C 298.070312 243.4375 282.886719 236.808594 264.738281 224.851562 L 269.972656 237.242188 L 270.234375 237.535156 L 272.738281 238.785156 C 280.023438 242.371094 300.039062 251.75 310.753906 251.523438 C 319.175781 250.964844 327.371094 248.570312 334.761719 244.519531 L 336.195312 243.714844 C 336.675781 243.472656 338.226562 242.828125 337.660156 244.980469 L 336.871094 247.980469 C 336.757812 248.394531 336.644531 248.785156 336.535156 249.121094 L 336.378906 249.578125 L 336.03125 250.476562 C 335.691406 251.726562 335.039062 252.867188 334.140625 253.792969 C 330.167969 256.730469 325.789062 259.074219 321.136719 260.746094 C 309 265.628906 295.996094 267.992188 282.917969 267.699219 C 278.285156 267.597656 273.765625 267.136719 269.667969 266.675781 L 265.664062 266.226562 C 253.007812 264.851562 243.996094 264.5 242.019531 276.367188 C 240.640625 284.605469 244.78125 294.335938 250.789062 303.175781 L 251.414062 304.085938 L 227.273438 304.085938 L 226.617188 302.894531 C 219.085938 288.863281 214.972656 270.113281 187.597656 270.113281 C 162.53125 270.113281 163.398438 294.15625 166.15625 303.425781 L 166.363281 304.085938 L 143.558594 304.085938 C 134.164062 269.878906 109.179688 255.160156 92.6875 252.253906 L 91.550781 252.066406 C 79.746094 250.253906 59.578125 250.683594 48.734375 271.160156 C 44.125 280.898438 44.492188 292.265625 49.726562 301.683594 C 54.957031 311.105469 64.410156 317.425781 75.117188 318.660156 C 86.082031 319.851562 94.316406 317.292969 98.96875 311.300781 C 103.625 305.285156 104.480469 297.152344 101.179688 290.296875 C 98.359375 283.636719 92.023438 279.136719 84.804688 278.664062 C 80.519531 277.964844 76.183594 279.578125 73.402344 282.910156 C 72.730469 283.972656 72.308594 285.171875 72.167969 286.414062 L 72.121094 287.039062 L 72.132812 287.511719 C 72.332031 290.785156 74.796875 293.507812 78.085938 293.992188 C 79.042969 293.972656 79.996094 293.871094 80.933594 293.683594 L 81.867188 293.46875 L 82.824219 293.148438 L 83.496094 292.945312 L 83.960938 292.945312 C 87.238281 292.285156 90.527344 294.042969 91.796875 297.136719 C 93 300.070312 92.074219 303.421875 89.59375 305.324219 L 89.167969 305.628906 L 88.960938 305.628906 L 88.644531 305.832031 C 87.734375 306.402344 86.757812 306.851562 85.734375 307.167969 C 83.171875 308.015625 80.492188 308.4375 77.792969 308.417969 C 66.351562 308 57.257812 298.664062 57.140625 287.214844 C 57.132812 279.304688 61.183594 271.945312 67.875 267.726562 C 78.273438 261.597656 91.175781 261.71875 101.4375 267.976562 L 102.285156 268.511719 C 116.15625 277.210938 122.5625 294.070312 117.960938 309.785156 C 111.914062 328.34375 95.273438 338.320312 73.226562 336.285156 C 57.6875 334.953125 43.507812 326.886719 34.425781 314.207031 C 30.644531 308.824219 27.867188 302.804688 26.222656 296.4375 C 23.675781 284.613281 24.617188 272.308594 28.925781 261.007812 C 37.171875 240.539062 52.804688 222.796875 75.417969 208.425781 L 78.460938 206.527344 Z M 319.226562 205.011719 C 314.054688 199.46875 306.050781 197.59375 298.957031 200.257812 C 291.859375 202.921875 287.066406 209.597656 286.816406 217.171875 C 286.503906 227.488281 294.566406 236.121094 304.878906 236.515625 C 312.453125 236.78125 319.441406 232.457031 322.582031 225.558594 C 325.726562 218.660156 324.402344 210.550781 319.226562 205.011719 Z M 305.371094 204.511719 L 305.984375 204.519531 C 310.660156 204.675781 314.898438 207.316406 317.101562 211.441406 C 319.304688 215.570312 319.136719 220.558594 316.664062 224.53125 C 314.191406 228.503906 309.785156 230.855469 305.109375 230.699219 C 301.632812 230.570312 298.347656 229.0625 295.984375 226.507812 C 293.621094 223.953125 292.375 220.5625 292.515625 217.085938 C 292.761719 210.105469 298.457031 204.597656 305.371094 204.511719 Z M 308.019531 211.152344 L 308.136719 211.179688 C 304.964844 211.179688 302.203125 212.898438 302.203125 215.019531 C 302.203125 217.144531 304.789062 218.890625 308.019531 218.890625 C 311.246094 218.890625 313.835938 217.171875 313.835938 215.019531 C 313.835938 212.980469 311.488281 211.332031 308.519531 211.167969 Z M 308.019531 211.152344 " fill-opacity="1" fill-rule="nonzero"/></g></svg>