<svg xmlns="http://www.w3.org/2000/svg" xmlns:xlink="http://www.w3.org/1999/xlink" width="800" zoomAndPan="magnify" viewBox="0 0 600 225" height="300" preserveAspectRatio="xMidYMid meet" version="1.0"><defs><clipPath id="88fde3e039"><path d="M 22.5 62.550781 L 122 62.550781 L 122 160 L 22.5 160 Z M 22.5 62.550781 " clip-rule="nonzero"/></clipPath><clipPath id="d493a9e91c"><path d="M 239 89 L 298 89 L 298 162.300781 L 239 162.300781 Z M 239 89 " clip-rule="nonzero"/></clipPath><clipPath id="69cd33013a"><path d="M 196 62.550781 L 227 62.550781 L 227 161 L 196 161 Z M 196 62.550781 " clip-rule="nonzero"/></clipPath><clipPath id="84ddfe4bb9"><path d="M 311 86 L 387 86 L 387 162.300781 L 311 162.300781 Z M 311 86 " clip-rule="nonzero"/></clipPath><clipPath id="e5c3bdd697"><path d="M 502 86 L 577.5 86 L 577.5 162.300781 L 502 162.300781 Z M 502 86 " clip-rule="nonzero"/></clipPath></defs><path fill="#000000" d="M 167.226562 99.882812 L 166.628906 99.882812 L 165.386719 89.539062 L 155.488281 89.539062 L 155.488281 159.332031 L 168.46875 159.332031 L 168.46875 115.011719 C 171.554688 106.503906 177.910156 101.8125 186.839844 100.804688 L 186.839844 89.308594 C 177.539062 88.941406 170.773438 93.675781 167.226562 99.882812 Z M 167.226562 99.882812 " fill-opacity="1" fill-rule="nonzero"/><g clip-path="url(#88fde3e039)"><path fill="#000000" d="M 107.097656 62.597656 L 73.214844 139.976562 L 72.617188 141.816406 L 72.0625 141.816406 L 71.464844 139.976562 L 37.351562 62.597656 L 22.527344 62.597656 L 66.308594 159.332031 L 78.371094 159.332031 L 121.921875 62.597656 Z M 107.097656 62.597656 " fill-opacity="1" fill-rule="nonzero"/></g><g clip-path="url(#d493a9e91c)"><path fill="#000000" d="M 297.464844 130.824219 C 297.464844 149.628906 287.476562 162.273438 268.277344 162.273438 C 249.078125 162.273438 238.996094 149.628906 239.089844 130.824219 L 239.089844 89.308594 L 252.441406 89.308594 L 252.441406 129.585938 C 252.441406 144.25 259.578125 149.996094 268.277344 149.996094 C 276.980469 149.996094 283.886719 144.25 284.117188 129.585938 L 284.117188 89.308594 L 297.464844 89.308594 Z M 297.464844 130.824219 " fill-opacity="1" fill-rule="nonzero"/></g><path fill="#000000" d="M 134.308594 89.308594 L 120.726562 89.308594 L 120.726562 159.332031 L 134.308594 159.332031 Z M 134.308594 89.308594 " fill-opacity="1" fill-rule="nonzero"/><g clip-path="url(#69cd33013a)"><path fill="#000000" d="M 196.003906 133.722656 C 196.003906 150.226562 203.921875 160.019531 220.496094 160.019531 L 224.179688 160.019531 L 224.179688 148.527344 C 212.347656 148.296875 209.125 142.78125 209.125 129.355469 L 209.125 100.574219 L 226.25 100.574219 L 226.25 89.308594 L 209.125 89.308594 L 209.125 62.550781 L 196.003906 62.550781 Z M 196.003906 133.722656 " fill-opacity="1" fill-rule="nonzero"/></g><path fill="#000000" d="M 439.90625 89.261719 L 395.664062 89.261719 L 395.664062 100.296875 L 420.296875 100.296875 L 393.960938 159.285156 L 441.980469 159.285156 L 441.980469 148.25 L 413.25 148.25 Z M 439.90625 89.261719 " fill-opacity="1" fill-rule="nonzero"/><path fill="#000000" d="M 495.292969 89.261719 L 451.050781 89.261719 L 451.050781 100.296875 L 475.683594 100.296875 L 449.347656 159.285156 L 497.503906 159.285156 L 497.503906 148.25 L 468.777344 148.25 Z M 495.292969 89.261719 " fill-opacity="1" fill-rule="nonzero"/><g clip-path="url(#84ddfe4bb9)"><path fill="#000000" d="M 348.890625 86.503906 C 327.53125 86.503906 311.324219 103.011719 311.324219 124.390625 C 311.324219 145.722656 327.53125 162.273438 348.890625 162.273438 C 370.253906 162.273438 386.460938 145.769531 386.460938 124.390625 C 386.460938 103.054688 370.253906 86.503906 348.890625 86.503906 Z M 348.890625 150 C 335.21875 150 325.226562 138.414062 325.226562 124.390625 C 325.226562 110.414062 335.21875 98.78125 348.890625 98.78125 C 362.566406 98.78125 372.554688 110.367188 372.554688 124.390625 C 372.554688 138.414062 362.566406 150 348.890625 150 Z M 348.890625 150 " fill-opacity="1" fill-rule="nonzero"/></g><g clip-path="url(#e5c3bdd697)"><path fill="#000000" d="M 539.90625 86.503906 C 518.546875 86.503906 502.339844 103.007812 502.339844 124.390625 C 502.339844 145.722656 518.546875 162.273438 539.90625 162.273438 C 561.269531 162.273438 577.472656 145.769531 577.472656 124.390625 C 577.472656 103.054688 561.269531 86.503906 539.90625 86.503906 Z M 539.90625 150 C 526.234375 150 516.242188 138.410156 516.242188 124.390625 C 516.242188 110.410156 526.234375 98.78125 539.90625 98.78125 C 553.578125 98.78125 563.570312 110.367188 563.570312 124.390625 C 563.570312 138.410156 553.578125 150 539.90625 150 Z M 539.90625 150 " fill-opacity="1" fill-rule="nonzero"/></g></svg>