<?xml version="1.0" encoding="UTF-8"?>
<svg version="1.1" xmlns="http://www.w3.org/2000/svg" width="640" height="640">
<path d="M0 0 C2.01992399 0.00848911 4.03699763 -0.02021401 6.05664062 -0.05200195 C7.33539063 -0.05135742 8.61414063 -0.05071289 9.93164062 -0.05004883 C11.10130371 -0.05190186 12.2709668 -0.05375488 13.47607422 -0.05566406 C17.56607822 0.58918466 18.91208195 1.31456887 21.65820312 4.44604492 C26.90608341 14.5908375 28.74589798 27.0862083 31.49023438 38.10229492 C32.05014014 40.33131104 32.61059059 42.5601904 33.17155457 44.78894043 C34.64522965 50.6495215 36.11215863 56.51176954 37.57745361 62.37445068 C39.04678486 68.24946649 40.52142104 74.12314923 41.99609375 79.99682617 C42.42616635 81.70998268 42.42616635 81.70998268 42.86492729 83.45774841 C43.43692236 85.73609556 44.00896311 88.01443125 44.58105087 90.29275513 C45.14392691 92.53449057 45.70670467 94.77625068 46.26938248 97.01803589 C51.05797295 116.10071608 51.05797295 116.10071608 55.91992188 135.16479492 C56.19487991 136.24305542 56.46983795 137.32131592 56.75312805 138.43225098 C56.99725937 139.37459595 57.24139069 140.31694092 57.49291992 141.2878418 C57.69700974 142.07960815 57.90109955 142.87137451 58.1113739 143.68713379 C58.51110093 145.45404465 58.51110093 145.45404465 59.65820312 146.44604492 C59.90005152 145.40574505 59.90005152 145.40574505 60.14678574 144.34442902 C64.07554189 127.44822096 68.01548273 110.55466028 71.96780014 93.66394806 C73.87886396 85.4955739 75.78616987 77.32635667 77.68457031 69.1550293 C79.33974877 62.03065132 81.00203953 54.90797662 82.67279458 47.78723478 C83.5567194 44.01884933 84.4371265 40.24972141 85.30901337 36.47853088 C86.1309052 32.92409879 86.96233772 29.37203135 87.80092621 25.82150269 C88.2506315 23.90662474 88.69038164 21.98941725 89.12976074 20.07214355 C92.91179634 4.16879616 92.91179634 4.16879616 98.01953125 0.96484375 C103.36539447 -0.08622577 108.7293657 0.11924345 114.15820312 0.13354492 C115.99318359 0.109375 115.99318359 0.109375 117.86523438 0.0847168 C119.63447266 0.08375 119.63447266 0.08375 121.43945312 0.08276367 C123.04916992 0.07829224 123.04916992 0.07829224 124.69140625 0.07373047 C128.25039868 0.52036176 129.92821815 1.09789833 132.65820312 3.44604492 C135.58531182 10.16664005 137.15676036 17.16252413 138.81274414 24.28442383 C139.26212341 26.18829613 139.26212341 26.18829613 139.72058105 28.13063049 C140.36856655 30.87609627 141.01325712 33.62230669 141.65533638 36.3691597 C142.67149627 40.71615946 143.69522983 45.0613543 144.71995544 49.40634155 C146.33996494 56.27931732 147.95508865 63.15343007 149.56803697 70.02806604 C152.4570143 82.34123402 155.35151485 94.65310087 158.25201553 106.96355951 C159.26873965 111.27982511 160.28241132 115.59679268 161.29360783 119.91435647 C161.7715693 121.9534333 162.25077953 123.99221188 162.73052979 126.03086853 C163.3142853 128.51173077 163.89604041 130.99306492 164.47538757 133.47496033 C164.7346402 134.57390121 164.99389282 135.6728421 165.26100159 136.80508423 C165.48386621 137.75520197 165.70673082 138.70531971 165.93634892 139.6842289 C166.71316455 142.65632747 167.65724832 145.54252722 168.65820312 148.44604492 C169.11348892 146.67461624 169.11348892 146.67461624 169.57797241 144.86740112 C172.48752023 133.54751333 175.39824327 122.22792825 178.31001854 110.9086132 C179.8057075 105.0940854 181.30103047 99.27946406 182.79541016 93.46459961 C185.93683988 81.24180661 189.08417429 69.02057946 192.24407578 56.80254745 C193.80425699 50.76629868 195.35369743 44.72745965 196.89199638 38.68559837 C197.79743205 35.13633101 198.71098307 31.58918883 199.62663651 28.04254532 C200.04241506 26.42463111 200.45465691 24.80580309 200.86301804 23.18600082 C201.41895102 20.9825383 201.98746606 18.78268962 202.55908203 16.58325195 C202.87036041 15.36445343 203.18163879 14.14565491 203.50234985 12.8899231 C204.97287765 8.50846853 206.74441465 3.91189321 210.50756836 1.02954102 C215.73917474 -0.38986405 221.34148665 0.07642683 226.72070312 0.07104492 C228.01298828 0.04655273 229.30527344 0.02206055 230.63671875 -0.00317383 C232.49006836 -0.00897461 232.49006836 -0.00897461 234.38085938 -0.01489258 C235.51273682 -0.02311035 236.64461426 -0.03132812 237.81079102 -0.03979492 C240.65820312 0.44604492 240.65820312 0.44604492 242.61303711 1.97485352 C245.75423685 9.40190881 240.68986525 19.39038769 238.40820312 26.60229492 C237.9616394 28.0313897 237.51568779 29.46067587 237.07029724 30.89013672 C235.86020845 34.76794192 234.64178235 38.64308159 233.42182541 42.51779175 C232.13650545 46.60499864 230.85876075 50.69457209 229.58032227 54.78393555 C227.68870082 60.83217679 225.79437935 66.8795617 223.89696217 72.92598724 C220.46368366 83.86686095 217.04599283 94.81253329 213.63544846 105.76051331 C211.39523462 112.95103726 209.15293372 120.1409109 206.91101074 127.3309021 C206.10197409 129.92593048 205.29327979 132.52106537 204.48461914 135.11621094 C203.20025056 139.23730307 201.91396457 143.3577926 200.62635994 147.47787476 C200.15770196 148.97843599 199.68962336 150.47917834 199.2222271 151.98013306 C197.94179257 156.09135172 196.64920927 160.19838369 195.33991623 164.30050659 C194.86018565 165.81035045 194.38477934 167.32157172 193.91252518 168.83377075 C193.14572436 171.28420083 192.36438805 173.72960716 191.58032227 176.17456055 C191.34793822 176.92691734 191.11555418 177.67927414 190.8761282 178.45442963 C189.45880018 182.81527474 187.93629087 186.10146782 184.65820312 189.44604492 C179.25383018 191.24750257 173.43852146 190.673401 167.78320312 190.69604492 C165.86314453 190.72698242 165.86314453 190.72698242 163.90429688 190.75854492 C162.67066406 190.76370117 161.43703125 190.76885742 160.16601562 190.77416992 C159.03824707 190.78351563 157.91047852 190.79286133 156.74853516 190.80249023 C153.18110968 190.39101597 151.44149627 189.70914648 148.65820312 187.44604492 C145.52174593 182.21990653 144.30058468 176.68470904 142.91845703 170.81689453 C142.66270401 169.75735062 142.40695099 168.6978067 142.14344788 167.6061554 C141.30023141 164.10520401 140.46746709 160.60185457 139.63476562 157.09838867 C139.04632052 154.646052 138.45722931 152.19387029 137.86752319 149.74183655 C136.4727483 143.93533215 135.08455134 138.12729343 133.69952524 132.31845909 C131.98936441 125.14778092 130.26895325 117.97957314 128.54882812 110.8112793 C123.56418478 90.02789798 118.60524342 69.23840595 113.65820312 48.44604492 C111.5650483 52.39567102 110.56765443 56.42953369 109.55444336 60.75830078 C109.35402939 61.59678055 109.15361542 62.43526031 108.9471283 63.29914856 C108.28237833 66.08531329 107.62462931 68.87308329 106.96679688 71.66088867 C106.49842769 73.62930499 106.0295928 75.59761055 105.56031799 77.56581116 C104.31827884 82.78010278 103.0820122 87.99574583 101.84710693 93.21173096 C100.62496627 98.37061194 99.39845604 103.52845258 98.171875 108.6862793 C97.93231897 109.69385096 97.69276295 110.70142262 97.44594765 111.73952675 C95.53891099 119.75950738 93.62976346 127.77898486 91.71800804 135.79784203 C90.58463996 140.5524503 89.45350677 145.30756378 88.32794189 150.06402588 C87.2946708 154.42963645 86.25439384 158.7935175 85.20866585 163.15616035 C84.82845023 164.7478041 84.45078917 166.34006061 84.07589531 167.93296623 C83.56338201 170.1090308 83.04174557 172.28271354 82.51782227 174.45605469 C82.08500694 176.27521141 82.08500694 176.27521141 81.64344788 178.13111877 C80.3504136 182.4816247 78.893462 186.21078605 75.65820312 189.44604492 C70.33712925 191.2990376 64.33803642 190.6717615 58.78320312 190.69604492 C57.61144531 190.71666992 56.4396875 190.73729492 55.23242188 190.75854492 C43.65262504 190.81112062 43.65262504 190.81112062 39.65820312 187.44604492 C35.55222187 180.27788135 33.52239114 171.99247431 31.15820312 164.13745117 C30.72581051 162.71626497 30.29291002 161.2952332 29.85954285 159.87434387 C28.69472766 156.05009226 27.53701811 152.22372371 26.38067245 148.39690399 C25.16389254 144.37443934 23.94057709 140.35396294 22.71801758 136.33325195 C20.4410852 128.84138463 18.17002179 121.34775261 15.90138149 113.85337067 C13.52311261 105.99763129 11.13865965 98.14377548 8.75356674 90.29010582 C5.98153459 81.16131963 3.21173943 72.03185362 0.4453125 62.90136719 C0.25225084 62.26424144 0.05918919 61.62711569 -0.13972282 60.9706831 C-1.45683904 56.62224522 -2.76807095 52.27205351 -4.07861328 47.92163086 C-5.45631174 43.35385976 -6.85009056 38.79162472 -8.26324558 34.2347393 C-9.11557916 31.48215228 -9.96039416 28.72728682 -10.80426598 25.97209549 C-11.39918592 24.03977099 -12.00423526 22.11057422 -12.60957336 20.18148804 C-12.96810898 19.00760529 -13.32664459 17.83372253 -13.69604492 16.62426758 C-14.0146196 15.59741852 -14.33319427 14.57056946 -14.66142273 13.51260376 C-15.55172997 9.49984173 -16.36178754 5.22364559 -14.24560547 1.53564453 C-10.05473991 -0.86289778 -4.69892955 -0.03019438 0 0 Z " fill="#FFFEFE" transform="translate(215.341796875,164.553955078125)"/>
<path d="M0 0 C5.51869273 0.18031232 9.94149072 3.33921709 14.59765625 6.03515625 C16.75567319 7.2395184 18.91593445 8.43986566 21.078125 9.63671875 C22.21427246 10.26739258 23.35041992 10.89806641 24.52099609 11.54785156 C94.6334445 50.15399592 173.78409746 72.33264227 253.03515625 81.47265625 C253.75030396 81.55622375 254.46545166 81.63979126 255.20227051 81.72589111 C298.63069529 86.7378149 343.63575778 86.75995083 387.03515625 81.47265625 C388.49999385 81.29926445 389.96483774 81.12592577 391.4296875 80.95263672 C448.97704117 74.04501574 511.77956995 61.6004494 564.03515625 35.47265625 C568.64753231 34.8269236 572.72229836 34.71419167 576.59765625 37.53515625 C579.03515625 40.47265625 579.03515625 40.47265625 579.66015625 43.91015625 C578.56554583 50.14943562 575.68289585 53.22555122 570.6484375 56.76953125 C568.89036558 57.9340532 567.12288023 59.08445238 565.34765625 60.22265625 C563.93806641 61.14171753 563.93806641 61.14171753 562.5 62.0793457 C554.16073024 67.47713016 545.71790308 72.64699002 537.03515625 77.47265625 C536.2580127 77.90642578 535.48086914 78.34019531 534.68017578 78.78710938 C452.81313548 124.0787257 350.85907354 141.3770317 184.36132812 115.4453125 C158.07794918 107.84026486 132.67835091 98.3552749 108.03515625 86.47265625 C107.28733887 86.11461914 106.53952148 85.75658203 105.76904297 85.38769531 C71.30098214 68.81262501 38.97820468 47.94381163 9.98828125 22.984375 C6.3927781 19.92629494 2.69585854 17.01414804 -1.0390625 14.12890625 C-2.96484375 12.47265625 -2.96484375 12.47265625 -4.96484375 9.47265625 C-5.21484375 5.91015625 -5.21484375 5.91015625 -4.96484375 2.47265625 C-2.96484375 0.47265625 -2.96484375 0.47265625 0 0 Z " fill="#FF9900" transform="translate(4.96484375,410.52734375)"/>
<path d="M0 0 C10.99582541 9.8318529 15.98776967 25.35014999 17.984375 39.48828125 C18.08794358 42.2090116 18.14833453 44.90580485 18.15795898 47.62646484 C18.164646 48.42094025 18.17133301 49.21541565 18.17822266 50.03396606 C18.1922221 51.75265377 18.20413217 53.47135951 18.21417046 55.19007492 C18.23070264 57.92541707 18.25395034 60.66062852 18.27906799 63.39590454 C18.34946662 71.17125811 18.40953337 78.94666773 18.46118164 86.72216797 C18.49331224 91.48839774 18.53467661 96.25447976 18.58137703 101.02058792 C18.59720557 102.82154254 18.60961318 104.62253109 18.61828423 106.42353439 C18.51080599 127.56166271 18.51080599 127.56166271 23.984375 147.73828125 C24.5 148.9396875 25.015625 150.14109375 25.546875 151.37890625 C26.37063531 153.16073562 27.21924033 154.93253499 28.13671875 156.66796875 C29.65466711 159.9277104 29.81258577 163.05521404 28.984375 166.48828125 C27.11193045 169.13871332 24.66531628 170.70536769 21.984375 172.48828125 C20.96859375 173.20886719 19.9528125 173.92945313 18.90625 174.671875 C9.46208745 181.14544948 9.46208745 181.14544948 4.671875 181.05078125 C-3.3230638 178.83834536 -7.70329896 169.63394334 -11.515625 162.92578125 C-12.70117879 160.78922371 -13.86316262 158.64301809 -15.015625 156.48828125 C-15.51449219 157.03355469 -16.01335937 157.57882812 -16.52734375 158.140625 C-31.03075505 173.37311263 -49.82376316 183.30697814 -71.015625 184.48828125 C-72.315 184.56755859 -72.315 184.56755859 -73.640625 184.6484375 C-90.58746686 185.17802631 -106.26899095 181.31771921 -119.453125 170.23828125 C-130.8149797 159.21224492 -135.88826099 145.26074339 -136.30810547 129.59033203 C-136.45522461 114.14282194 -132.6329939 98.90199003 -121.89453125 87.23828125 C-103.56689809 70.16805328 -81.18525997 65.66508254 -56.87744141 66.34326172 C-43.44829489 67.02376957 -30.07732107 69.3763802 -17.015625 72.48828125 C-17.23906978 68.09068824 -17.49938413 63.69597434 -17.765625 59.30078125 C-17.8275 58.07423828 -17.889375 56.84769531 -17.953125 55.58398438 C-18.72776047 43.35119931 -20.85081244 31.96133444 -29.515625 22.86328125 C-41.29107816 13.5983308 -59.81795497 14.56674404 -73.94921875 15.84375 C-84.57563806 17.41296356 -94.4882562 20.79531419 -104.57568359 24.43920898 C-110.65584226 26.59132461 -115.55504621 28.03391153 -122.015625 27.48828125 C-123.94575256 23.62802613 -123.41760955 18.98561734 -123.515625 14.73828125 C-123.56976563 13.74828125 -123.62390625 12.75828125 -123.6796875 11.73828125 C-123.81283229 4.62454556 -123.81283229 4.62454556 -121.65917969 1.55493164 C-93.01839057 -24.23374547 -29.06831037 -21.80123277 0 0 Z M-90.2578125 103.42578125 C-97.0474144 111.39224748 -98.60445923 120.3422145 -98.015625 130.48828125 C-96.88976268 139.38116843 -93.1456925 145.21030061 -86.2734375 150.94140625 C-78.03566797 156.58527603 -67.97961564 156.39171781 -58.45703125 154.94921875 C-44.36787696 152.18901845 -31.52063996 146.53705244 -23.015625 134.48828125 C-16.28799537 123.05131087 -16.74511599 110.30740258 -17.015625 97.48828125 C-25.09015862 95.48301628 -33.05852182 94.12712374 -41.328125 93.30078125 C-42.56224121 93.17533936 -42.56224121 93.17533936 -43.82128906 93.04736328 C-59.83516744 91.55269177 -77.88360962 91.80304818 -90.2578125 103.42578125 Z " fill="#FFFEFE" transform="translate(162.015625,175.51171875)"/>
<path d="M0 0 C0.6574118 0.00021149 1.31482361 0.00042297 1.99215698 0.00064087 C20.06571815 0.05844164 41.24522527 2.23207912 55.625 14.375 C57.72948454 17.53172682 57.88048261 18.3268109 57.890625 21.9375 C57.89320313 22.81664062 57.89578125 23.69578125 57.8984375 24.6015625 C57.89070312 25.51679688 57.88296875 26.43203125 57.875 27.375 C57.88273438 28.29023438 57.89046875 29.20546875 57.8984375 30.1484375 C57.89585937 31.02757812 57.89328125 31.90671875 57.890625 32.8125 C57.88836914 33.61558594 57.88611328 34.41867188 57.88378906 35.24609375 C57.625 37.375 57.625 37.375 55.625 40.375 C50.01997973 40.08999897 45.5888832 39.1096271 40.375 37 C22.12029942 29.62134766 -1.60216328 26.51080722 -20.25 34.1875 C-25.86253482 36.97343214 -30.00362198 39.62445993 -32.25 45.75 C-33.96904075 51.94059316 -34.02140723 57.4342938 -31.53125 63.39453125 C-25.01929631 74.54845192 -9.92807365 78.05285234 1.5 81.75 C2.67312744 82.13720215 3.84625488 82.5244043 5.05493164 82.92333984 C10.56829944 84.74104875 16.09010023 86.52701138 21.62890625 88.265625 C38.52624333 93.6180591 54.4806851 100.60351136 63.4453125 116.88671875 C70.10105667 130.9254904 70.55532343 146.67811987 65.625 161.375 C59.43009903 176.65154152 47.08378878 187.37234533 32.22216797 193.83569336 C2.80004379 205.99648695 -31.86339756 202.69576577 -60.94921875 190.9609375 C-65.70592226 188.75886039 -69.95270311 186.21959379 -72.375 181.375 C-72.61336379 178.06795275 -72.56018688 174.75219696 -72.5625 171.4375 C-72.57474609 170.51775391 -72.58699219 169.59800781 -72.59960938 168.65039062 C-72.60154297 167.76673828 -72.60347656 166.88308594 -72.60546875 165.97265625 C-72.60957764 165.16320557 -72.61368652 164.35375488 -72.61791992 163.51977539 C-72.375 161.375 -72.375 161.375 -70.375 158.375 C-63.94508397 157.45281467 -58.78158658 159.84580528 -52.875 162.1875 C-31.32159715 170.37217808 -4.51104032 175.20943833 17.40625 165.49609375 C23.24198602 162.54740319 27.23157528 159.75258019 29.90234375 153.61328125 C31.95455943 147.25695917 32.26425661 141.60502241 29.8046875 135.359375 C21.14841242 120.79848844 0.52786502 117.59502447 -14.62573242 113.07275391 C-34.4204335 107.13344095 -53.44549725 100.2776646 -64.375 81.375 C-71.08815281 68.85644775 -72.61867324 54.26799077 -68.8125 40.5625 C-63.32972198 25.01834337 -52.77864229 14.87388623 -38.375 7.375 C-25.60286063 1.89726379 -13.82828953 -0.01844592 0 0 Z " fill="#FFFEFE" transform="translate(545.375,159.625)"/>
<path d="M0 0 C4.83892424 4.22994397 4.83892424 4.22994397 5.17700195 7.94506836 C6.09924359 43.98597748 -6.09542786 79.37663088 -30.90234375 105.93359375 C-37.71475606 112.64451761 -37.71475606 112.64451761 -42.8125 113.4375 C-45 113 -45 113 -47 111 C-46.65696026 106.25008129 -45.50600274 102.21695589 -43.7421875 97.81640625 C-43.28448975 96.65294678 -42.82679199 95.4894873 -42.35522461 94.29077148 C-42.11335419 93.68272675 -41.87148376 93.07468201 -41.62228394 92.44821167 C-37.6408543 82.40139015 -33.96026355 72.32043436 -30.9375 61.9375 C-30.66341309 61.00687744 -30.38932617 60.07625488 -30.10693359 59.11743164 C-25.66027102 44.16586694 -25.66027102 44.16586694 -27 29 C-31.73941802 23.25219517 -36.41736399 22.15025127 -43.61572266 21.22705078 C-60.09296296 19.65795049 -76.66554566 21.17221397 -93.06201172 22.93212891 C-107.9719428 24.51573378 -107.9719428 24.51573378 -114 24 C-115 23 -115 23 -115.5625 20.375 C-114.82399003 15.94394017 -113.29496037 14.60576072 -109.84375 11.859375 C-80.88652613 -7.07419445 -32.13938361 -14.3781453 0 0 Z " fill="#FF9900" transform="translate(635,404)"/>
</svg>
