<svg xmlns="http://www.w3.org/2000/svg" xmlns:xlink="http://www.w3.org/1999/xlink" width="800" zoomAndPan="magnify" viewBox="0 0 600 225" height="300" preserveAspectRatio="xMidYMid meet" version="1.0"><defs><clipPath id="72c3a432b0"><path d="M 59.363281 189 L 147 189 L 147 201.75 L 59.363281 201.75 Z M 59.363281 189 " clip-rule="nonzero"/></clipPath><clipPath id="7d216fb0b1"><path d="M 59.363281 165 L 147 165 L 147 178 L 59.363281 178 Z M 59.363281 165 " clip-rule="nonzero"/></clipPath><clipPath id="110df94dca"><path d="M 59.363281 46 L 147 46 L 147 59 L 59.363281 59 Z M 59.363281 46 " clip-rule="nonzero"/></clipPath><clipPath id="5da54fbdd3"><path d="M 59.363281 22.5 L 147 22.5 L 147 35 L 59.363281 35 Z M 59.363281 22.5 " clip-rule="nonzero"/></clipPath><clipPath id="61d79ff257"><path d="M 158 189 L 284 189 L 284 201.75 L 158 201.75 Z M 158 189 " clip-rule="nonzero"/></clipPath><clipPath id="c8c11a0ad2"><path d="M 158 22.5 L 284 22.5 L 284 35 L 158 35 Z M 158 22.5 " clip-rule="nonzero"/></clipPath><clipPath id="3fe9cb49a3"><path d="M 308 22.5 L 384 22.5 L 384 35 L 308 35 Z M 308 22.5 " clip-rule="nonzero"/></clipPath><clipPath id="7f18e91623"><path d="M 444 189 L 508 189 L 508 201.75 L 444 201.75 Z M 444 189 " clip-rule="nonzero"/></clipPath><clipPath id="92a736bd79"><path d="M 431 22.5 L 508 22.5 L 508 35 L 431 35 Z M 431 22.5 " clip-rule="nonzero"/></clipPath><clipPath id="a1ec58ab2d"><path d="M 403 189 L 412 189 L 412 201.75 L 403 201.75 Z M 403 189 " clip-rule="nonzero"/></clipPath><clipPath id="e160fd002c"><path d="M 308 189 L 371 189 L 371 201.75 L 308 201.75 Z M 308 189 " clip-rule="nonzero"/></clipPath><clipPath id="cbad9b079d"><path d="M 520 182 L 540.863281 182 L 540.863281 201.75 L 520 201.75 Z M 520 182 " clip-rule="nonzero"/></clipPath></defs><g clip-path="url(#72c3a432b0)"><path fill="#1f70c1" d="M 59.460938 189.246094 L 146.511719 189.246094 L 146.511719 201.730469 L 59.460938 201.730469 Z M 59.460938 189.246094 " fill-opacity="1" fill-rule="nonzero"/></g><g clip-path="url(#7d216fb0b1)"><path fill="#1f70c1" d="M 59.460938 165.414062 L 146.511719 165.414062 L 146.511719 177.894531 L 59.460938 177.894531 Z M 59.460938 165.414062 " fill-opacity="1" fill-rule="nonzero"/></g><path fill="#1f70c1" d="M 84.292969 141.601562 L 121.632812 141.601562 L 121.632812 154.082031 L 84.292969 154.082031 Z M 84.292969 141.601562 " fill-opacity="1" fill-rule="nonzero"/><path fill="#1f70c1" d="M 84.292969 117.789062 L 121.632812 117.789062 L 121.632812 130.269531 L 84.292969 130.269531 Z M 84.292969 117.789062 " fill-opacity="1" fill-rule="nonzero"/><path fill="#1f70c1" d="M 84.292969 93.976562 L 121.632812 93.976562 L 121.632812 106.457031 L 84.292969 106.457031 Z M 84.292969 93.976562 " fill-opacity="1" fill-rule="nonzero"/><path fill="#1f70c1" d="M 84.292969 70.125 L 121.632812 70.125 L 121.632812 82.605469 L 84.292969 82.605469 Z M 84.292969 70.125 " fill-opacity="1" fill-rule="nonzero"/><g clip-path="url(#110df94dca)"><path fill="#1f70c1" d="M 59.460938 46.3125 L 146.511719 46.3125 L 146.511719 58.792969 L 59.460938 58.792969 Z M 59.460938 46.3125 " fill-opacity="1" fill-rule="nonzero"/></g><g clip-path="url(#5da54fbdd3)"><path fill="#1f70c1" d="M 59.460938 22.5 L 146.511719 22.5 L 146.511719 34.980469 L 59.460938 34.980469 Z M 59.460938 22.5 " fill-opacity="1" fill-rule="nonzero"/></g><g clip-path="url(#61d79ff257)"><path fill="#1f70c1" d="M 158.929688 201.617188 L 251.660156 201.75 C 264.078125 201.75 275.296875 196.96875 283.679688 189.265625 L 158.933594 189.265625 Z M 158.929688 201.617188 " fill-opacity="1" fill-rule="nonzero"/></g><path fill="#1f70c1" d="M 158.929688 177.894531 L 292.816406 177.894531 C 295.078125 174.042969 296.761719 169.839844 297.78125 165.410156 L 158.933594 165.410156 Z M 158.929688 177.894531 " fill-opacity="1" fill-rule="nonzero"/><path fill="#1f70c1" d="M 183.808594 141.601562 L 221.101562 141.601562 L 221.101562 154.082031 L 183.808594 154.082031 Z M 183.808594 141.601562 " fill-opacity="1" fill-rule="nonzero"/><path fill="#1f70c1" d="M 258.445312 141.601562 L 258.445312 154.082031 L 299.15625 154.082031 C 299.15625 149.789062 298.578125 145.585938 297.46875 141.601562 Z M 258.445312 141.601562 " fill-opacity="1" fill-rule="nonzero"/><path fill="#1f70c1" d="M 282.394531 117.789062 L 183.808594 117.789062 L 183.808594 130.269531 L 292.8125 130.269531 C 289.972656 125.488281 286.46875 121.285156 282.390625 117.789062 Z M 282.394531 117.789062 " fill-opacity="1" fill-rule="nonzero"/><path fill="#1f70c1" d="M 183.808594 93.976562 L 183.808594 106.457031 L 282.394531 106.457031 C 286.5625 102.960938 290.066406 98.757812 292.816406 93.976562 Z M 183.808594 93.976562 " fill-opacity="1" fill-rule="nonzero"/><path fill="#1f70c1" d="M 183.808594 70.125 L 221.101562 70.125 L 221.101562 82.605469 L 183.808594 82.605469 Z M 183.808594 70.125 " fill-opacity="1" fill-rule="nonzero"/><path fill="#1f70c1" d="M 258.445312 82.605469 L 297.46875 82.605469 C 298.578125 78.621094 299.15625 74.417969 299.15625 70.125 L 258.445312 70.125 Z M 258.445312 82.605469 " fill-opacity="1" fill-rule="nonzero"/><path fill="#1f70c1" d="M 292.816406 46.3125 L 158.929688 46.3125 L 158.929688 58.792969 L 297.78125 58.792969 C 296.628906 54.367188 294.941406 50.160156 292.816406 46.3125 Z M 292.816406 46.3125 " fill-opacity="1" fill-rule="nonzero"/><g clip-path="url(#c8c11a0ad2)"><path fill="#1f70c1" d="M 251.660156 22.5 L 158.929688 22.5 L 158.929688 34.980469 L 283.636719 34.980469 C 275.300781 27.28125 263.992188 22.5 251.664062 22.5 Z M 251.660156 22.5 " fill-opacity="1" fill-rule="nonzero"/></g><path fill="#1f70c1" d="M 308.203125 58.792969 L 391.976562 58.792969 L 387.671875 46.3125 L 308.203125 46.3125 Z M 308.203125 58.792969 " fill-opacity="1" fill-rule="nonzero"/><g clip-path="url(#3fe9cb49a3)"><path fill="#1f70c1" d="M 308.203125 34.980469 L 383.726562 34.980469 L 379.425781 22.5 L 308.203125 22.5 Z M 308.203125 34.980469 " fill-opacity="1" fill-rule="nonzero"/></g><g clip-path="url(#7f18e91623)"><path fill="#1f70c1" d="M 444.96875 189.277344 L 507.1875 189.277344 L 507.1875 201.757812 L 444.96875 201.757812 Z M 444.96875 189.277344 " fill-opacity="1" fill-rule="nonzero"/></g><path fill="#1f70c1" d="M 444.96875 165.414062 L 507.1875 165.414062 L 507.1875 177.894531 L 444.96875 177.894531 Z M 444.96875 165.414062 " fill-opacity="1" fill-rule="nonzero"/><path fill="#1f70c1" d="M 407.671875 104.066406 L 404.171875 93.976562 L 333.035156 93.976562 L 333.035156 106.457031 L 370.375 106.457031 L 370.375 94.996094 L 374.324219 106.457031 L 441.023438 106.457031 L 444.96875 94.996094 L 444.96875 106.457031 L 482.308594 106.457031 L 482.308594 93.976562 L 411.179688 93.976562 Z M 407.671875 104.066406 " fill-opacity="1" fill-rule="nonzero"/><path fill="#1f70c1" d="M 482.308594 70.125 L 419.425781 70.125 L 415.121094 82.605469 L 482.308594 82.605469 Z M 482.308594 70.125 " fill-opacity="1" fill-rule="nonzero"/><g clip-path="url(#92a736bd79)"><path fill="#1f70c1" d="M 507.1875 34.980469 L 507.1875 22.5 L 435.96875 22.5 L 431.667969 34.980469 Z M 507.1875 34.980469 " fill-opacity="1" fill-rule="nonzero"/></g><g clip-path="url(#a1ec58ab2d)"><path fill="#1f70c1" d="M 403.375 189.269531 L 407.671875 201.617188 L 411.976562 189.269531 Z M 403.375 189.269531 " fill-opacity="1" fill-rule="nonzero"/></g><path fill="#1f70c1" d="M 395.03125 165.414062 L 399.425781 177.894531 L 415.925781 177.894531 L 420.355469 165.414062 Z M 395.03125 165.414062 " fill-opacity="1" fill-rule="nonzero"/><path fill="#1f70c1" d="M 386.652344 141.601562 L 391.042969 154.082031 L 424.304688 154.082031 L 428.691406 141.601562 Z M 386.652344 141.601562 " fill-opacity="1" fill-rule="nonzero"/><path fill="#1f70c1" d="M 382.707031 130.269531 L 432.6875 130.269531 L 436.945312 117.789062 L 378.402344 117.789062 Z M 382.707031 130.269531 " fill-opacity="1" fill-rule="nonzero"/><path fill="#1f70c1" d="M 333.035156 82.605469 L 400.222656 82.605469 L 395.925781 70.125 L 333.035156 70.125 Z M 333.035156 82.605469 " fill-opacity="1" fill-rule="nonzero"/><path fill="#1f70c1" d="M 507.1875 46.3125 L 427.671875 46.3125 L 423.417969 58.792969 L 507.1875 58.792969 Z M 507.1875 46.3125 " fill-opacity="1" fill-rule="nonzero"/><g clip-path="url(#e160fd002c)"><path fill="#1f70c1" d="M 308.203125 189.269531 L 370.425781 189.269531 L 370.425781 201.75 L 308.203125 201.75 Z M 308.203125 189.269531 " fill-opacity="1" fill-rule="nonzero"/></g><path fill="#1f70c1" d="M 308.203125 165.414062 L 370.425781 165.414062 L 370.425781 177.894531 L 308.203125 177.894531 Z M 308.203125 165.414062 " fill-opacity="1" fill-rule="nonzero"/><path fill="#1f70c1" d="M 333.035156 141.601562 L 370.375 141.601562 L 370.375 154.082031 L 333.035156 154.082031 Z M 333.035156 141.601562 " fill-opacity="1" fill-rule="nonzero"/><path fill="#1f70c1" d="M 333.035156 117.789062 L 370.375 117.789062 L 370.375 130.269531 L 333.035156 130.269531 Z M 333.035156 117.789062 " fill-opacity="1" fill-rule="nonzero"/><path fill="#1f70c1" d="M 444.96875 117.789062 L 482.308594 117.789062 L 482.308594 130.269531 L 444.96875 130.269531 Z M 444.96875 117.789062 " fill-opacity="1" fill-rule="nonzero"/><path fill="#1f70c1" d="M 444.96875 141.601562 L 482.308594 141.601562 L 482.308594 154.082031 L 444.96875 154.082031 Z M 444.96875 141.601562 " fill-opacity="1" fill-rule="nonzero"/><g clip-path="url(#cbad9b079d)"><path fill="#1f70c1" d="M 530.472656 182.089844 C 529.824219 182.089844 529.183594 182.152344 528.550781 182.277344 C 527.914062 182.402344 527.300781 182.589844 526.703125 182.835938 C 526.105469 183.085938 525.535156 183.386719 525 183.746094 C 524.460938 184.105469 523.964844 184.511719 523.507812 184.96875 C 523.050781 185.425781 522.640625 185.921875 522.28125 186.457031 C 521.921875 186.996094 521.617188 187.5625 521.371094 188.15625 C 521.125 188.753906 520.9375 189.367188 520.808594 190 C 520.683594 190.632812 520.621094 191.273438 520.621094 191.917969 C 520.621094 192.566406 520.683594 193.203125 520.808594 193.835938 C 520.9375 194.46875 521.125 195.085938 521.371094 195.679688 C 521.617188 196.277344 521.921875 196.84375 522.28125 197.382812 C 522.640625 197.917969 523.046875 198.414062 523.507812 198.871094 C 523.964844 199.328125 524.460938 199.734375 525 200.09375 C 525.535156 200.453125 526.105469 200.753906 526.703125 201 C 527.300781 201.25 527.914062 201.433594 528.550781 201.5625 C 529.183594 201.6875 529.824219 201.75 530.472656 201.75 C 531.117188 201.75 531.757812 201.6875 532.394531 201.5625 C 533.027344 201.433594 533.644531 201.25 534.242188 201 C 534.839844 200.753906 535.40625 200.453125 535.945312 200.09375 C 536.480469 199.734375 536.980469 199.328125 537.4375 198.871094 C 537.894531 198.414062 538.300781 197.917969 538.660156 197.382812 C 539.019531 196.84375 539.324219 196.277344 539.570312 195.679688 C 539.820312 195.085938 540.003906 194.46875 540.132812 193.835938 C 540.257812 193.203125 540.320312 192.566406 540.320312 191.917969 C 540.320312 191.273438 540.257812 190.632812 540.132812 190 C 540.003906 189.367188 539.820312 188.753906 539.570312 188.15625 C 539.324219 187.5625 539.019531 186.996094 538.660156 186.457031 C 538.300781 185.921875 537.894531 185.425781 537.4375 184.96875 C 536.980469 184.511719 536.480469 184.105469 535.945312 183.746094 C 535.40625 183.386719 534.839844 183.085938 534.242188 182.835938 C 533.644531 182.589844 533.027344 182.402344 532.394531 182.277344 C 531.757812 182.152344 531.117188 182.089844 530.472656 182.089844 Z M 530.472656 183.875 C 531 183.875 531.523438 183.929688 532.042969 184.03125 C 532.5625 184.132812 533.066406 184.285156 533.554688 184.488281 C 534.042969 184.691406 534.507812 184.9375 534.949219 185.230469 C 535.386719 185.523438 535.796875 185.859375 536.167969 186.230469 C 536.542969 186.605469 536.878906 187.011719 537.171875 187.449219 C 537.464844 187.890625 537.714844 188.355469 537.917969 188.839844 C 538.121094 189.328125 538.273438 189.832031 538.375 190.351562 C 538.480469 190.867188 538.53125 191.390625 538.53125 191.917969 C 538.53125 192.449219 538.480469 192.96875 538.375 193.488281 C 538.273438 194.007812 538.121094 194.507812 537.917969 194.996094 C 537.714844 195.484375 537.464844 195.949219 537.171875 196.386719 C 536.878906 196.828125 536.542969 197.234375 536.167969 197.605469 C 535.796875 197.980469 535.386719 198.3125 534.949219 198.605469 C 534.507812 198.902344 534.042969 199.148438 533.554688 199.351562 C 533.066406 199.550781 532.5625 199.703125 532.042969 199.808594 C 531.523438 199.910156 531 199.960938 530.472656 199.960938 C 529.941406 199.960938 529.417969 199.910156 528.898438 199.808594 C 528.378906 199.703125 527.875 199.550781 527.386719 199.351562 C 526.898438 199.148438 526.433594 198.902344 525.992188 198.605469 C 525.554688 198.3125 525.148438 197.980469 524.773438 197.605469 C 524.398438 197.234375 524.0625 196.828125 523.769531 196.386719 C 523.476562 195.949219 523.226562 195.484375 523.027344 194.996094 C 522.824219 194.507812 522.671875 194.007812 522.566406 193.488281 C 522.464844 192.96875 522.410156 192.449219 522.410156 191.917969 C 522.410156 191.390625 522.464844 190.867188 522.566406 190.351562 C 522.671875 189.832031 522.824219 189.328125 523.027344 188.839844 C 523.226562 188.355469 523.476562 187.890625 523.769531 187.449219 C 524.0625 187.011719 524.398438 186.605469 524.773438 186.230469 C 525.148438 185.859375 525.554688 185.523438 525.992188 185.230469 C 526.433594 184.9375 526.898438 184.691406 527.386719 184.488281 C 527.875 184.285156 528.378906 184.132812 528.898438 184.03125 C 529.417969 183.929688 529.941406 183.875 530.472656 183.875 Z M 526.285156 186.910156 L 526.285156 196.925781 L 528.726562 196.925781 L 528.726562 193.472656 L 530.113281 193.472656 L 531.980469 196.925781 L 534.65625 196.925781 L 532.40625 193.09375 C 533.507812 192.660156 534.226562 191.65625 534.226562 190.078125 C 534.226562 188.253906 533.082031 186.910156 530.832031 186.910156 Z M 528.726562 188.828125 L 530.542969 188.828125 C 531.308594 188.828125 531.738281 189.164062 531.738281 189.878906 L 531.738281 190.601562 C 531.738281 191.320312 531.308594 191.65625 530.542969 191.65625 L 528.726562 191.65625 Z M 528.726562 188.828125 " fill-opacity="1" fill-rule="nonzero"/></g></svg>