<svg xmlns="http://www.w3.org/2000/svg" xmlns:xlink="http://www.w3.org/1999/xlink" width="800" zoomAndPan="magnify" viewBox="0 0 600 225" height="300" preserveAspectRatio="xMidYMid meet" version="1.0"><defs><clipPath id="52dc0fd251"><path d="M 36.78125 25.773438 L 563.28125 25.773438 L 563.28125 199.023438 L 36.78125 199.023438 Z M 36.78125 25.773438 " clip-rule="nonzero"/></clipPath></defs><g clip-path="url(#52dc0fd251)"><path fill="#000000" d="M 481.097656 99.664062 C 470.730469 99.582031 462.503906 108.320312 463.179688 118.601562 C 462.832031 128.96875 471.058594 137.539062 481.34375 137.621094 C 491.707031 137.703125 499.851562 128.96875 499.261719 118.601562 C 499.605469 108.320312 491.378906 99.746094 481.097656 99.664062 Z M 338.25 99.664062 C 327.96875 99.582031 319.660156 108.320312 320.429688 118.601562 C 320.085938 128.96875 328.230469 137.539062 338.597656 137.621094 C 348.878906 137.703125 357.105469 128.96875 356.414062 118.601562 C 356.761719 108.320312 348.617188 99.746094 338.25 99.664062 Z M 184.511719 98.464844 C 178.933594 98.300781 173.636719 100.785156 170.199219 105.226562 C 166.859375 109.933594 165.492188 115.671875 166.429688 121.332031 L 198.828125 107.957031 C 196.425781 102.214844 190.765625 98.449219 184.511719 98.449219 Z M 36.78125 24.605469 L 36.78125 200.109375 L 563.28125 200.109375 L 563.28125 24.605469 Z M 146.636719 152.464844 L 85.628906 152.464844 L 85.628906 64.71875 L 104.484375 64.71875 L 104.484375 135.417969 L 146.652344 135.417969 Z M 186.488281 138.824219 C 193.59375 138.90625 200.539062 136.421875 205.851562 131.617188 L 217.597656 140.617188 C 209.207031 148.925781 197.972656 153.550781 186.15625 153.550781 C 166.019531 155.523438 148.363281 140.007812 147.773438 119.785156 C 147.179688 99.484375 163.878906 83.03125 184.199219 83.789062 C 194.21875 83.277344 203.992188 87.308594 210.855469 94.761719 C 215.3125 100.160156 218.140625 106.675781 219 113.617188 L 171.53125 133.410156 C 175.5625 137.097656 180.957031 139.070312 186.519531 138.808594 Z M 293.597656 152.464844 L 275.003906 152.464844 L 275.003906 113.980469 C 274.742188 105.753906 267.714844 99.320312 259.40625 99.746094 C 251.179688 99.238281 244.15625 105.753906 244.074219 113.980469 L 244.074219 152.464844 L 225.5625 152.464844 L 225.5625 84.855469 L 244.15625 84.855469 L 244.15625 94.546875 C 249.386719 87.785156 257.53125 83.835938 266.085938 83.753906 C 281.339844 82.898438 294.023438 95.320312 293.515625 110.574219 Z M 337.132812 153.566406 C 306.363281 152.28125 292.148438 114.753906 314.425781 93.414062 C 336.621094 72.15625 373.558594 87.835938 373.558594 118.601562 C 373.476562 138.476562 356.941406 154.339844 337.132812 153.566406 Z M 398.484375 152.363281 L 370.710938 84.839844 L 391.871094 84.839844 L 408.667969 130.941406 L 425.46875 84.839844 L 446.628906 84.839844 L 418.773438 152.363281 Z M 479.894531 153.566406 C 449.210938 152.28125 434.996094 114.753906 457.191406 93.414062 C 479.46875 72.15625 516.324219 87.835938 516.324219 118.601562 C 516.242188 138.476562 499.789062 154.339844 479.894531 153.566406 Z M 523.777344 144.402344 L 520.683594 144.402344 L 520.683594 152.464844 L 518.890625 152.464844 L 518.890625 144.402344 L 515.894531 144.402344 L 515.894531 142.691406 L 523.777344 142.691406 Z M 535.6875 152.464844 L 533.894531 152.464844 L 533.894531 145.519531 L 530.898438 150.226562 L 530.636719 150.226562 L 527.640625 145.519531 L 527.640625 152.464844 L 525.847656 152.464844 L 525.847656 142.691406 L 527.824219 142.691406 L 530.734375 147.3125 L 533.648438 142.691406 L 535.621094 142.691406 Z M 535.6875 152.464844 " fill-opacity="1" fill-rule="nonzero"/></g></svg>