<svg xmlns="http://www.w3.org/2000/svg" xmlns:xlink="http://www.w3.org/1999/xlink" width="800" zoomAndPan="magnify" viewBox="0 0 600 599.999999" height="800" preserveAspectRatio="xMidYMid meet" version="1.0"><defs><clipPath id="08dc0fb18f"><path d="M 316 317 L 493 317 L 493 495 L 316 495 Z M 316 317 " clip-rule="nonzero"/></clipPath><clipPath id="6115a3b5c9"><path d="M 29.765625 25.96875 L 574.253906 29.769531 L 570.453125 574.253906 L 25.964844 570.453125 Z M 29.765625 25.96875 " clip-rule="nonzero"/></clipPath><clipPath id="650322597e"><path d="M 21.578125 17.664062 L 582.5625 21.578125 L 578.648438 582.566406 L 17.660156 578.648438 Z M 21.578125 17.664062 " clip-rule="nonzero"/></clipPath><clipPath id="ed2d138fd2"><path d="M 105 316 L 283 316 L 283 493 L 105 493 Z M 105 316 " clip-rule="nonzero"/></clipPath><clipPath id="5199150444"><path d="M 29.765625 25.96875 L 574.253906 29.769531 L 570.453125 574.253906 L 25.964844 570.453125 Z M 29.765625 25.96875 " clip-rule="nonzero"/></clipPath><clipPath id="b27a30f8ba"><path d="M 21.578125 17.664062 L 582.5625 21.578125 L 578.648438 582.566406 L 17.660156 578.648438 Z M 21.578125 17.664062 " clip-rule="nonzero"/></clipPath><clipPath id="984c42f679"><path d="M 317 107 L 495 107 L 495 284 L 317 284 Z M 317 107 " clip-rule="nonzero"/></clipPath><clipPath id="96bdf5d01b"><path d="M 29.765625 25.96875 L 574.253906 29.769531 L 570.453125 574.253906 L 25.964844 570.453125 Z M 29.765625 25.96875 " clip-rule="nonzero"/></clipPath><clipPath id="ce75182eea"><path d="M 21.578125 17.664062 L 582.5625 21.578125 L 578.648438 582.566406 L 17.660156 578.648438 Z M 21.578125 17.664062 " clip-rule="nonzero"/></clipPath><clipPath id="57ee7e838a"><path d="M 107 105 L 284 105 L 284 283 L 107 283 Z M 107 105 " clip-rule="nonzero"/></clipPath><clipPath id="4ea2cbe714"><path d="M 29.765625 25.96875 L 574.253906 29.769531 L 570.453125 574.253906 L 25.964844 570.453125 Z M 29.765625 25.96875 " clip-rule="nonzero"/></clipPath><clipPath id="6665a52ac8"><path d="M 21.578125 17.664062 L 582.5625 21.578125 L 578.648438 582.566406 L 17.660156 578.648438 Z M 21.578125 17.664062 " clip-rule="nonzero"/></clipPath></defs><g clip-path="url(#08dc0fb18f)"><g clip-path="url(#6115a3b5c9)"><g clip-path="url(#650322597e)"><path fill="#feba08" d="M 317.519531 317.765625 L 492.828125 318.992188 L 491.605469 494.300781 L 316.296875 493.074219 Z M 317.519531 317.765625 " fill-opacity="1" fill-rule="nonzero"/></g></g></g><g clip-path="url(#ed2d138fd2)"><g clip-path="url(#5199150444)"><g clip-path="url(#b27a30f8ba)"><path fill="#05a6f0" d="M 107.152344 316.300781 L 282.460938 317.523438 L 281.234375 492.832031 L 105.925781 491.605469 Z M 107.152344 316.300781 " fill-opacity="1" fill-rule="nonzero"/></g></g></g><g clip-path="url(#984c42f679)"><g clip-path="url(#96bdf5d01b)"><g clip-path="url(#ce75182eea)"><path fill="#80bc06" d="M 318.988281 107.398438 L 494.296875 108.621094 L 493.074219 283.929688 L 317.765625 282.707031 Z M 318.988281 107.398438 " fill-opacity="1" fill-rule="nonzero"/></g></g></g><g clip-path="url(#57ee7e838a)"><g clip-path="url(#4ea2cbe714)"><g clip-path="url(#6665a52ac8)"><path fill="#f25325" d="M 108.621094 105.929688 L 283.929688 107.152344 L 282.703125 282.460938 L 107.394531 281.238281 Z M 108.621094 105.929688 " fill-opacity="1" fill-rule="nonzero"/></g></g></g></svg>