<svg xmlns="http://www.w3.org/2000/svg" xmlns:xlink="http://www.w3.org/1999/xlink" width="800" zoomAndPan="magnify" viewBox="0 0 600 225" height="300" preserveAspectRatio="xMidYMid meet" version="1.0"><defs><clipPath id="aa9c227fba"><path d="M 14 45 L 193 45 L 193 180.519531 L 14 180.519531 Z M 14 45 " clip-rule="nonzero"/></clipPath><clipPath id="cffbb436b2"><path d="M 48 75 L 586.664062 75 L 586.664062 149 L 48 149 Z M 48 75 " clip-rule="nonzero"/></clipPath></defs><g clip-path="url(#aa9c227fba)"><path fill="#ee0000" d="M 132.820312 122.933594 C 144.511719 122.933594 161.433594 120.519531 161.433594 106.585938 C 161.46875 105.507812 161.371094 104.441406 161.140625 103.386719 L 154.179688 73.089844 C 152.570312 66.425781 151.160156 63.398438 139.476562 57.546875 C 130.410156 52.90625 110.65625 45.238281 104.816406 45.238281 C 99.375 45.238281 97.796875 52.257812 91.308594 52.257812 C 85.066406 52.257812 80.429688 47.015625 74.585938 47.015625 C 68.980469 47.015625 65.324219 50.84375 62.5 58.71875 C 62.5 58.71875 54.640625 80.925781 53.628906 84.144531 C 53.46875 84.742188 53.402344 85.347656 53.425781 85.960938 C 53.425781 94.59375 87.355469 122.894531 132.820312 122.894531 M 163.226562 112.242188 C 164.84375 119.910156 164.84375 120.714844 164.84375 121.726562 C 164.84375 134.832031 150.132812 142.105469 130.792969 142.105469 C 87.085938 142.136719 48.796875 116.484375 48.796875 99.527344 C 48.796875 97.144531 49.265625 94.855469 50.210938 92.664062 C 34.488281 93.453125 14.136719 96.261719 14.136719 114.253906 C 14.136719 143.726562 83.859375 180.050781 139.0625 180.050781 C 181.386719 180.050781 192.0625 160.878906 192.0625 145.738281 C 192.0625 133.832031 181.78125 120.3125 163.246094 112.242188 " fill-opacity="1" fill-rule="nonzero"/></g><g clip-path="url(#cffbb436b2)"><path fill="#000000" d="M 163.226562 112.242188 C 164.84375 119.910156 164.84375 120.714844 164.84375 121.726562 C 164.84375 134.832031 150.132812 142.105469 130.792969 142.105469 C 87.085938 142.136719 48.796875 116.484375 48.796875 99.527344 C 48.796875 97.144531 49.265625 94.855469 50.210938 92.664062 L 53.628906 84.183594 C 53.472656 84.765625 53.40625 85.359375 53.425781 85.960938 C 53.425781 94.59375 87.355469 122.894531 132.820312 122.894531 C 144.511719 122.894531 161.433594 120.480469 161.433594 106.550781 C 161.46875 105.46875 161.371094 104.402344 161.140625 103.347656 Z M 555.566406 131.648438 C 555.566406 142.78125 562.25 148.191406 574.4375 148.191406 C 578.203125 148.097656 581.910156 147.574219 585.550781 146.621094 L 585.550781 133.710938 C 583.21875 134.449219 580.824219 134.8125 578.375 134.796875 C 573.355469 134.796875 571.496094 133.222656 571.496094 128.496094 L 571.496094 108.710938 L 586.039062 108.710938 L 586.039062 95.417969 L 571.496094 95.417969 L 571.496094 78.566406 L 555.605469 82.011719 L 555.605469 95.417969 L 545.050781 95.417969 L 545.050781 108.710938 L 555.566406 108.710938 Z M 506.027344 131.949219 C 506.027344 128.503906 509.476562 126.828125 514.683594 126.828125 C 517.875 126.847656 521.023438 127.238281 524.121094 128.007812 L 524.121094 134.703125 C 521.027344 136.394531 517.714844 137.214844 514.1875 137.164062 C 509.082031 137.164062 506.027344 135.199219 506.027344 131.949219 Z M 510.886719 148.390625 C 516.496094 148.390625 521.019531 147.210938 525.246094 144.355469 L 525.246094 147.507812 L 540.964844 147.507812 L 540.964844 114.125 C 540.964844 101.429688 532.421875 94.464844 518.167969 94.464844 C 510.203125 94.464844 502.335938 96.335938 493.867188 100.175781 L 499.566406 111.894531 C 505.660156 109.332031 510.785156 107.757812 515.300781 107.757812 C 521.84375 107.757812 525.226562 110.3125 525.226562 115.539062 L 525.226562 118.09375 C 521.355469 117.089844 517.425781 116.597656 513.429688 116.613281 C 500.054688 116.613281 491.996094 122.230469 491.996094 132.277344 C 491.996094 141.433594 499.269531 148.417969 510.867188 148.417969 Z M 424.460938 147.535156 L 441.371094 147.535156 L 441.371094 120.527344 L 469.683594 120.527344 L 469.683594 147.507812 L 486.640625 147.507812 L 486.640625 78.585938 L 469.75 78.585938 L 469.75 105.070312 L 441.4375 105.070312 L 441.4375 78.585938 L 424.527344 78.585938 Z M 360.097656 121.417969 C 360.097656 113.925781 365.996094 108.214844 373.761719 108.214844 C 375.785156 108.175781 377.742188 108.503906 379.640625 109.203125 C 381.535156 109.898438 383.242188 110.917969 384.753906 112.261719 L 384.753906 130.46875 C 383.273438 131.871094 381.582031 132.933594 379.675781 133.65625 C 377.769531 134.382812 375.800781 134.710938 373.761719 134.644531 C 366.097656 134.644531 360.097656 128.933594 360.097656 121.453125 Z M 384.972656 147.546875 L 400.703125 147.546875 L 400.703125 75.140625 L 384.8125 78.585938 L 384.8125 98.179688 C 382.789062 97.03125 380.652344 96.164062 378.402344 95.582031 C 376.152344 94.996094 373.863281 94.714844 371.539062 94.734375 C 356.40625 94.734375 344.507812 106.445312 344.507812 121.417969 C 344.496094 122.292969 344.527344 123.167969 344.605469 124.039062 C 344.679688 124.914062 344.800781 125.777344 344.960938 126.640625 C 345.121094 127.5 345.328125 128.351562 345.574219 129.191406 C 345.820312 130.03125 346.105469 130.859375 346.433594 131.671875 C 346.761719 132.484375 347.128906 133.277344 347.539062 134.050781 C 347.945312 134.828125 348.390625 135.582031 348.871094 136.3125 C 349.351562 137.042969 349.871094 137.75 350.421875 138.429688 C 350.972656 139.109375 351.558594 139.757812 352.171875 140.378906 C 352.789062 141.003906 353.433594 141.589844 354.109375 142.148438 C 354.785156 142.707031 355.484375 143.230469 356.210938 143.714844 C 356.9375 144.203125 357.6875 144.65625 358.457031 145.066406 C 359.230469 145.480469 360.019531 145.855469 360.828125 146.1875 C 361.636719 146.523438 362.460938 146.816406 363.296875 147.070312 C 364.132812 147.320312 364.984375 147.53125 365.839844 147.699219 C 366.699219 147.867188 367.5625 147.992188 368.433594 148.074219 C 369.304688 148.160156 370.179688 148.195312 371.050781 148.191406 C 373.558594 148.203125 376.007812 147.824219 378.390625 147.050781 C 380.777344 146.277344 382.984375 145.152344 385.007812 143.671875 L 384.96875 147.546875 Z M 312.78125 107.496094 C 317.792969 107.496094 322.015625 110.742188 323.691406 115.761719 L 302.003906 115.761719 C 303.574219 110.585938 307.511719 107.496094 312.78125 107.496094 Z M 285.984375 121.539062 C 285.984375 136.703125 298.367188 148.519531 314.285156 148.519531 C 323.035156 148.519531 329.429688 146.152344 336.019531 140.636719 L 325.496094 131.273438 C 323.035156 133.839844 319.398438 135.214844 315.082031 135.214844 C 314.40625 135.234375 313.734375 135.203125 313.0625 135.121094 C 312.394531 135.039062 311.734375 134.90625 311.082031 134.726562 C 310.433594 134.542969 309.800781 134.3125 309.183594 134.035156 C 308.566406 133.757812 307.976562 133.433594 307.410156 133.070312 C 306.839844 132.703125 306.304688 132.292969 305.796875 131.847656 C 305.292969 131.398438 304.820312 130.914062 304.390625 130.398438 C 303.957031 129.878906 303.5625 129.332031 303.210938 128.753906 C 302.859375 128.175781 302.554688 127.574219 302.292969 126.949219 L 339.355469 126.949219 L 339.355469 122.988281 C 339.355469 106.445312 328.25 94.539062 313.109375 94.539062 C 312.222656 94.523438 311.335938 94.554688 310.449219 94.628906 C 309.566406 94.707031 308.6875 94.824219 307.816406 94.988281 C 306.941406 95.152344 306.078125 95.355469 305.226562 95.605469 C 304.375 95.855469 303.539062 96.144531 302.714844 96.476562 C 301.890625 96.8125 301.085938 97.183594 300.300781 97.597656 C 299.511719 98.011719 298.75 98.460938 298.007812 98.949219 C 297.265625 99.441406 296.550781 99.964844 295.863281 100.527344 C 295.175781 101.085938 294.515625 101.679688 293.886719 102.308594 C 293.253906 102.933594 292.660156 103.589844 292.09375 104.277344 C 291.53125 104.964844 291 105.675781 290.507812 106.414062 C 290.011719 107.152344 289.558594 107.917969 289.140625 108.699219 C 288.722656 109.484375 288.34375 110.289062 288.007812 111.113281 C 287.671875 111.933594 287.375 112.769531 287.121094 113.621094 C 286.867188 114.476562 286.65625 115.335938 286.484375 116.210938 C 286.316406 117.082031 286.191406 117.960938 286.113281 118.847656 C 286.03125 119.734375 285.996094 120.621094 286.003906 121.511719 Z M 258.566406 93.058594 C 264.175781 93.058594 267.316406 96.597656 267.316406 100.839844 C 267.316406 105.078125 264.175781 108.617188 258.566406 108.617188 L 241.847656 108.617188 L 241.847656 93.058594 Z M 224.917969 147.507812 L 241.828125 147.507812 L 241.828125 122.398438 L 254.699219 122.398438 L 267.683594 147.507812 L 286.609375 147.507812 L 271.46875 119.9375 C 272.425781 119.546875 273.347656 119.089844 274.234375 118.5625 C 275.125 118.035156 275.96875 117.445312 276.769531 116.792969 C 277.570312 116.136719 278.320312 115.429688 279.015625 114.664062 C 279.710938 113.898438 280.34375 113.085938 280.917969 112.226562 C 281.496094 111.367188 282.003906 110.472656 282.445312 109.535156 C 282.886719 108.601562 283.253906 107.636719 283.554688 106.648438 C 283.851562 105.65625 284.074219 104.648438 284.226562 103.625 C 284.375 102.601562 284.445312 101.574219 284.441406 100.539062 C 284.441406 88.132812 274.710938 78.585938 260.136719 78.585938 L 224.917969 78.585938 Z M 224.917969 147.507812 " fill-opacity="1" fill-rule="nonzero"/></g></svg>