<svg xmlns="http://www.w3.org/2000/svg" xmlns:xlink="http://www.w3.org/1999/xlink" width="800" zoomAndPan="magnify" viewBox="0 0 600 225" height="300" preserveAspectRatio="xMidYMid meet" version="1.0"><defs><clipPath id="c146fe29ab"><path d="M 327 63.054688 L 435 63.054688 L 435 161 L 327 161 Z M 327 63.054688 " clip-rule="nonzero"/></clipPath><clipPath id="f8b12149de"><path d="M 131 63.054688 L 224 63.054688 L 224 162.054688 L 131 162.054688 Z M 131 63.054688 " clip-rule="nonzero"/></clipPath><clipPath id="a8af8f8c2c"><path d="M 232 63.054688 L 325 63.054688 L 325 162.054688 L 232 162.054688 Z M 232 63.054688 " clip-rule="nonzero"/></clipPath></defs><path fill="#00b336" d="M 126.242188 65.074219 C 121.808594 62.660156 116.371094 64.5 114.089844 69.167969 L 81.542969 139.324219 C 80.785156 140.835938 80.128906 141.871094 78.398438 141.871094 C 76.667969 141.871094 76 140.835938 75.253906 139.324219 L 42.71875 69.15625 C 40.4375 64.484375 35 62.660156 30.570312 65.0625 C 26.140625 67.476562 24.410156 73.210938 26.6875 77.871094 L 58.476562 142.804688 L 62.09375 150.179688 C 65.25 156.648438 71.503906 160.664062 78.410156 160.664062 C 85.304688 160.664062 91.558594 156.648438 94.730469 150.179688 L 98.347656 142.804688 L 130.132812 77.871094 C 132.402344 73.226562 130.65625 67.488281 126.242188 65.074219 Z M 126.242188 65.074219 " fill-opacity="1" fill-rule="nonzero"/><path fill="#00b336" d="M 558.066406 64.011719 C 551.945312 63.984375 546.585938 67.816406 544.015625 73.082031 C 535.746094 89.96875 511.429688 140.21875 511.324219 140.386719 C 511.140625 140.703125 510.628906 141.871094 509.582031 141.871094 C 508.597656 141.871094 508.023438 140.769531 507.839844 140.375 C 499.777344 123.695312 483.878906 90.757812 475.527344 73.710938 C 472.316406 67.136719 466.929688 64 461.109375 64 C 461.109375 64 461.097656 64 461.097656 64 C 452.144531 64 444.898438 71.570312 444.898438 81.871094 L 444.898438 150.9375 C 444.898438 155.140625 447.296875 159.023438 450.980469 160.242188 C 456.980469 162.210938 462.132812 156.960938 462.132812 150.753906 L 460.875 83.433594 C 460.875 82.738281 461.714844 82.488281 462.027344 83.09375 L 495.230469 150.375 C 498.308594 156.820312 503.65625 160.664062 509.582031 160.664062 C 515.492188 160.664062 520.839844 156.820312 523.933594 150.375 L 557.148438 83.105469 C 557.476562 82.476562 558.34375 82.726562 558.34375 83.460938 L 557.070312 151.164062 C 557.070312 156.515625 561.066406 160.835938 565.957031 160.664062 C 570.675781 160.507812 574.308594 155.964844 574.308594 150.753906 C 574.308594 150.753906 574.308594 99.101562 574.308594 81.898438 C 574.320312 71.492188 567.046875 64.050781 558.066406 64.011719 Z M 558.066406 64.011719 " fill-opacity="1" fill-rule="nonzero"/><g clip-path="url(#c146fe29ab)"><path fill="#00b336" d="M 433.875 146.636719 L 397.289062 74.378906 C 394.117188 67.949219 387.878906 63.960938 381.011719 63.960938 C 376.699219 63.960938 372.648438 65.523438 369.4375 68.277344 C 367.511719 69.917969 365.882812 71.992188 364.703125 74.394531 L 328.304688 146.308594 C 328.265625 146.386719 328.238281 146.464844 328.199219 146.53125 L 328.148438 146.636719 C 326.457031 149.980469 326.863281 153.917969 328.871094 156.777344 C 328.921875 156.859375 328.972656 156.921875 329.027344 157.003906 C 329.078125 157.082031 329.144531 157.160156 329.210938 157.238281 C 329.867188 158.089844 330.652344 158.828125 331.609375 159.402344 C 334.6875 161.265625 338.332031 160.992188 341.085938 159.074219 C 341.125 159.050781 341.164062 159.023438 341.191406 158.996094 C 341.386719 158.851562 341.582031 158.707031 341.765625 158.550781 C 341.925781 158.417969 342.070312 158.273438 342.210938 158.128906 C 342.277344 158.066406 342.34375 158.011719 342.410156 157.945312 C 343.066406 157.277344 343.628906 156.503906 344.074219 155.609375 L 345.425781 152.75 L 353.039062 136.765625 C 353.234375 136.359375 353.628906 136.097656 354.0625 136.097656 L 387.683594 136.097656 C 387.683594 136.097656 387.683594 136.097656 387.695312 136.097656 C 392.191406 136.097656 395.847656 132.238281 395.847656 127.5 C 395.847656 122.75 392.191406 118.90625 387.695312 118.90625 L 362.582031 118.90625 C 362.042969 118.90625 361.703125 118.328125 361.898438 117.816406 L 363.773438 113.839844 L 377.523438 86.097656 L 377.578125 85.980469 C 377.601562 85.929688 377.628906 85.875 377.65625 85.824219 C 377.65625 85.824219 377.65625 85.835938 377.65625 85.824219 C 377.878906 85.363281 378.613281 83.382812 379.949219 82.976562 C 380.683594 82.753906 381.457031 82.777344 381.980469 82.9375 C 383.371094 83.355469 384 85.074219 384.601562 86.335938 C 384.601562 86.347656 384.601562 86.335938 384.601562 86.335938 L 417.949219 155.652344 C 419.574219 158.851562 422.691406 160.691406 425.917969 160.691406 C 426.9375 160.691406 427.976562 160.492188 428.984375 160.113281 C 429.050781 160.085938 429.113281 160.074219 429.167969 160.046875 C 429.417969 159.941406 429.652344 159.824219 429.886719 159.691406 C 429.980469 159.652344 430.070312 159.613281 430.152344 159.5625 C 430.203125 159.535156 430.242188 159.496094 430.292969 159.46875 C 430.359375 159.429688 430.4375 159.402344 430.503906 159.351562 C 430.609375 159.285156 430.703125 159.207031 430.804688 159.140625 C 430.898438 159.074219 430.976562 159.023438 431.054688 158.957031 C 431.1875 158.851562 431.316406 158.761719 431.449219 158.65625 C 431.59375 158.539062 431.738281 158.40625 431.878906 158.273438 C 431.921875 158.234375 431.960938 158.210938 431.984375 158.171875 C 434.972656 155.257812 435.851562 150.546875 433.875 146.636719 Z M 433.875 146.636719 " fill-opacity="1" fill-rule="nonzero"/></g><g clip-path="url(#f8b12149de)"><path fill="#00b336" d="M 150.789062 122.804688 L 212.355469 122.804688 C 213.523438 122.789062 223.050781 122.015625 223.050781 111.230469 C 223.066406 84.667969 202.550781 63.054688 177.347656 63.054688 C 152.152344 63.054688 131.652344 84.667969 131.652344 111.242188 C 131.652344 111.847656 131.695312 113.527344 131.695312 113.773438 C 131.652344 144.117188 151.132812 160.441406 176.902344 161.949219 C 178.132812 162.015625 179.339844 162.054688 180.519531 162.054688 C 190.429688 162.054688 198.789062 159.484375 207.875 153.734375 C 208.804688 153.15625 212.433594 150.730469 216.144531 145.941406 C 219.09375 142.132812 219.355469 136.425781 216.144531 133.460938 C 211.519531 129.179688 206.761719 131.492188 202.511719 135.113281 C 195.839844 140.796875 190.675781 145.230469 177.371094 145.242188 C 164.828125 145.242188 152.96875 138.078125 150.148438 123.761719 C 150.042969 123.261719 150.332031 122.804688 150.789062 122.804688 Z M 150.109375 105.023438 C 151.828125 91.113281 161.382812 78.777344 177.320312 78.777344 C 193.257812 78.777344 203.351562 90.863281 204.949219 105.023438 C 205.003906 105.535156 204.675781 106.019531 204.179688 106.019531 L 150.882812 106.019531 C 150.382812 106.019531 150.042969 105.546875 150.109375 105.023438 Z M 150.109375 105.023438 " fill-opacity="1" fill-rule="nonzero"/></g><g clip-path="url(#a8af8f8c2c)"><path fill="#00b336" d="M 252.074219 122.804688 L 313.636719 122.804688 C 314.804688 122.789062 324.335938 122.015625 324.335938 111.230469 C 324.335938 84.667969 303.820312 63.054688 278.628906 63.054688 C 253.421875 63.054688 232.921875 84.667969 232.921875 111.242188 C 232.921875 111.847656 232.960938 113.527344 232.960938 113.773438 C 232.921875 144.117188 252.398438 160.441406 278.167969 161.949219 C 279.402344 162.015625 280.609375 162.054688 281.789062 162.054688 C 291.695312 162.054688 300.058594 159.484375 309.140625 153.734375 C 310.074219 153.15625 313.703125 150.730469 317.414062 145.941406 C 320.363281 142.132812 320.625 136.425781 317.414062 133.460938 C 312.785156 129.179688 308.027344 131.492188 303.78125 135.113281 C 297.109375 140.796875 291.945312 145.230469 278.640625 145.242188 C 266.097656 145.242188 254.234375 138.078125 251.417969 123.761719 C 251.3125 123.261719 251.601562 122.804688 252.074219 122.804688 Z M 251.378906 105.023438 C 253.09375 91.113281 262.648438 78.777344 278.589844 78.777344 C 294.527344 78.777344 304.621094 90.863281 306.21875 105.023438 C 306.273438 105.535156 305.945312 106.019531 305.445312 106.019531 L 252.136719 106.019531 C 251.652344 106.019531 251.3125 105.546875 251.378906 105.023438 Z M 251.378906 105.023438 " fill-opacity="1" fill-rule="nonzero"/></g></svg>